<?xml version="1.0" ?>
<mxfile host="app.diagrams.net">
  <diagram name="Page-1">
    <mxGraphModel>
      <root>
        <mxCell id="0"/>
        <mxCell id="1" parent="0"/>
        <mxCell id="2" value="Node 1" style="shape=ellipse;fillColor=#FF0000;strokeColor=#000000;" vertex="1" parent="1">
          <mxGeometry x="20" y="20" width="80" height="40" as="geometry"/>
        </mxCell>
        <mxCell id="3" value="Edge 1" style="edgeStyle=orthogonalEdgeStyle;rounded=0;orthogonalLoop=1;jettySize=auto;html=1;" edge="1" source="2" target="2" parent="1">
          <mxGeometry relative="1" as="geometry"/>
        </mxCell>
      </root>
    </mxGraphModel>
  </diagram>
</mxfile>
